HIERARCHY
ROOT root
{
  OFFSET 0 98.6856 0
  CHANNELS 6 Xposition Yposition Zposition Zrotation Xrotation Yrotation
  JOINT torso_1
  {
    OFFSET 0 5.37224 -1.21793
    CHANNELS 6 Xposition Yposition Zposition Zrotation Xrotation Yrotation
    JOINT torso_2
    {
      OFFSET 0 5.94127 1.13336
      CHANNELS 6 Xposition Yposition Zposition Zrotation Xrotation Yrotation
      JOINT torso_3
      {
        OFFSET -1.08535e-17 6.33601 0.121658
        CHANNELS 6 Xposition Yposition Zposition Zrotation Xrotation Yrotation
        JOINT torso_4
        {
          OFFSET -1.16841e-17 6.88189 -0.46916
          CHANNELS 6 Xposition Yposition Zposition Zrotation Xrotation Yrotation
          JOINT torso_5
          {
            OFFSET -2.08699e-17 8.0451 -1.59297
            CHANNELS 6 Xposition Yposition Zposition Zrotation Xrotation Yrotation
            JOINT torso_6
            {
              OFFSET -2.67949e-17 10.0463 -0.967353
              CHANNELS 6 Xposition Yposition Zposition Zrotation Xrotation Yrotation
              JOINT torso_7
              {
                OFFSET -3.07187e-17 11.1612 1.66806
                CHANNELS 6 Xposition Yposition Zposition Zrotation Xrotation Yrotation
                JOINT neck_1
                {
                  OFFSET -1.36661e-17 5.06312 0.756688
                  CHANNELS 6 Xposition Yposition Zposition Zrotation Xrotation Yrotation
                  JOINT neck_2
                  {
                    OFFSET -1.91632e-17 5.09976 0.446172
                    CHANNELS 6 Xposition Yposition Zposition Zrotation Xrotation Yrotation
                    JOINT head
                    {
                      OFFSET -2.12574e-17 5.10962 0.809285
                      CHANNELS 6 Xposition Yposition Zposition Zrotation Xrotation Yrotation
                      End Site
                      {
                        OFFSET 0 0.1 0
                      }
                    }
                  }
                }
                JOINT l_shoulder
                {
                  OFFSET 1.30426 -8.04703 7.96922
                  CHANNELS 6 Xposition Yposition Zposition Zrotation Xrotation Yrotation
                  JOINT l_up_arm
                  {
                    OFFSET 13.7035 3.43734 -3.45766
                    CHANNELS 6 Xposition Yposition Zposition Zrotation Xrotation Yrotation
                    JOINT l_low_arm
                    {
                      OFFSET 30.8964 0.0632652 0.14496
                      CHANNELS 6 Xposition Yposition Zposition Zrotation Xrotation Yrotation
                      JOINT l_hand
                      {
                        OFFSET 25.6348 0.0524902 0.120274
                        CHANNELS 6 Xposition Yposition Zposition Zrotation Xrotation Yrotation
                        End Site
                        {
                          OFFSET 0.1 0 0
                        }
                      }
                    }
                  }
                }
                JOINT r_shoulder
                {
                  OFFSET -1.30426 -8.04702 7.96912
                  CHANNELS 6 Xposition Yposition Zposition Zrotation Xrotation Yrotation
                  JOINT r_up_arm
                  {
                    OFFSET -13.7035 3.43734 -3.45766
                    CHANNELS 6 Xposition Yposition Zposition Zrotation Xrotation Yrotation
                    JOINT r_low_arm
                    {
                      OFFSET -30.8964 0.0632652 0.14496
                      CHANNELS 6 Xposition Yposition Zposition Zrotation Xrotation Yrotation
                      JOINT r_hand
                      {
                        OFFSET -25.6348 0.0524901 0.120274
                        CHANNELS 6 Xposition Yposition Zposition Zrotation Xrotation Yrotation
                        End Site
                        {
                          OFFSET -0.1 0 0
                        }
                      }
                    }
                  }
                }
              }
            }
          }
        }
      }
    }
  }
  JOINT l_up_leg
  {
    OFFSET 9.77065 -4.44866 2.1502
    CHANNELS 6 Xposition Yposition Zposition Zrotation Xrotation Yrotation
    JOINT l_low_leg
    {
      OFFSET -0.901622 -41.0132 -0.693059
      CHANNELS 6 Xposition Yposition Zposition Zrotation Xrotation Yrotation
      JOINT l_foot
      {
        OFFSET -2.46068 -42.7371 -6.39839
        CHANNELS 6 Xposition Yposition Zposition Zrotation Xrotation Yrotation
        JOINT l_toes
        {
          OFFSET 0.82413 -10.4558 13.2182
          CHANNELS 6 Xposition Yposition Zposition Zrotation Xrotation Yrotation
          End Site
          {
            OFFSET 0 0 0.1
          }
        }
      }
    }
  }
  JOINT r_up_leg
  {
    OFFSET -9.77065 -4.44866 2.1502
    CHANNELS 6 Xposition Yposition Zposition Zrotation Xrotation Yrotation
    JOINT r_low_leg
    {
      OFFSET 0.901622 -41.0132 -0.693059
      CHANNELS 6 Xposition Yposition Zposition Zrotation Xrotation Yrotation
      JOINT r_foot
      {
        OFFSET 2.46068 -42.7371 -6.39839
        CHANNELS 6 Xposition Yposition Zposition Zrotation Xrotation Yrotation
        JOINT r_toes
        {
          OFFSET -0.82413 -10.4558 13.2182
          CHANNELS 6 Xposition Yposition Zposition Zrotation Xrotation Yrotation
          End Site
          {
            OFFSET 0 0 0.1
          }
        }
      }
    }
  }
}
MOTION
Frames: 5
Frame Time: 0.02
0 98.6856 0 -0 0 -0 0 5.37224 -1.21793 -0 0 -0 0 5.94127 1.13336 -0 0 -0 -1.08535e-17 6.33601 0.121658 -0 0 -0 -1.16841e-17 6.88189 -0.46916 -0 0 -0 -2.08699e-17 8.0451 -1.59297 -0 0 -0 -2.67949e-17 10.0463 -0.967353 -0 0 -0 -3.07187e-17 11.1612 1.66806 -0 0 -0 -1.36661e-17 5.06312 0.756688 -0 0 -0 -1.91632e-17 5.09976 0.446172 -0 0 -0 -2.12574e-17 5.10962 0.809285 -0 0 -0 1.30426 -8.04703 7.96922 -0 0 -0 13.7035 3.43734 -3.45766 -0 0 -0 30.8964 0.0632652 0.14496 -0 0 -0 25.6348 0.0524902 0.120274 -0 0 -0 -1.30426 -8.04702 7.96912 -0 0 -0 -13.7035 3.43734 -3.45766 -0 0 -0 -30.8964 0.0632652 0.14496 -0 0 -0 -25.6348 0.0524901 0.120274 -0 0 -0 9.77065 -4.44866 2.1502 -0 0 -0 -0.901622 -41.0132 -0.693059 -0 0 -0 -2.46068 -42.7371 -6.39839 -0 0 -0 0.82413 -10.4558 13.2182 -0 0 -0 -9.77065 -4.44866 2.1502 -0 0 -0 0.901622 -41.0132 -0.693059 -0 0 -0 2.46068 -42.7371 -6.39839 -0 0 -0 -0.82413 -10.4558 13.2182 -0 0 -0 
0.379945 91.2111 -15.2417 -0.663498 7.04627 3.44729 0 5.37224 -1.21793 -0.446058 6.90799 -0.283778 0 5.94127 1.13336 -0.377367 5.52387 -0.304692 -1.08535e-17 6.33601 0.121658 -0.190622 4.41804 -0.0341417 -1.16841e-17 6.88189 -0.46916 -0.131263 1.93733 0.0911919 -2.08699e-17 8.0451 -1.59297 0.0660327 0.798525 0.147514 -2.67949e-17 10.0463 -0.967353 0.138619 0.552963 0.00913965 -3.07187e-17 11.1612 1.66806 -0.000467481 0.11956 0.00761588 -1.36661e-17 5.06312 0.756688 0.554958 -4.062 3.65106 -1.91632e-17 5.09976 0.446172 1.07508 -10.0489 1.65868 -2.12574e-17 5.10962 0.809285 -2.57996 -6.39571 -4.99843 1.30426 -8.04703 7.96922 10.5222 1.19177 5.79154 13.7035 3.43734 -3.45766 -93.2653 -0.999072 8.89529 30.8964 0.0632652 0.14496 3.31436 -0.453386 -16.171 25.6348 0.0524902 0.120274 4.39696 2.15898 5.63194 -1.30426 -8.04702 7.96912 -6.1393 4.4847 -5.89029 -13.7035 3.43734 -3.45766 99.4107 15.2301 -12.3159 -30.8964 0.0632652 0.14496 -3.68093 -0.564146 18.0138 -25.6348 0.0524901 0.120274 -1.46236 -31.754 -5.54713 9.77065 -4.44866 2.1502 -0.364848 -31.8667 -19.372 -0.901622 -41.0132 -0.693059 -14.2426 43.3654 4.88326 -2.46068 -42.7371 -6.39839 4.69006 -17.311 16.8677 0.82413 -10.4558 13.2182 -3.47873e-16 -8.07563e-16 2.48481e-17 -9.77065 -4.44866 2.1502 3.32722 -33.116 20.8037 0.901622 -41.0132 -0.693059 14.8472 44.5557 -5.28164 2.46068 -42.7371 -6.39839 -6.8647 -15.092 -16.0968 -0.82413 -10.4558 13.2182 -5.96354e-16 -5.59082e-16 -1.27471e-14 
0.230681 89.3763 -15.3725 0.286007 4.29634 3.31045 0 5.37224 -1.21793 -0.777935 8.25027 -0.132845 0 5.94127 1.13336 -0.704065 6.56594 -0.160121 -1.08535e-17 6.33601 0.121658 -0.441278 5.23898 0.124385 -1.16841e-17 6.88189 -0.46916 -0.293632 2.45507 0.265404 -2.08699e-17 8.0451 -1.59297 0.0376796 0.977474 0.33573 -2.67949e-17 10.0463 -0.967353 0.271721 0.660789 0.156989 -3.07187e-17 11.1612 1.66806 0.00157074 0.118078 0.00968152 -1.36661e-17 5.06312 0.756688 0.509787 -2.5852 2.68554 -1.91632e-17 5.09976 0.446172 1.62155 -9.90256 1.2427 -2.12574e-17 5.10962 0.809285 -3.06775 -7.62752 -3.82751 1.30426 -8.04703 7.96922 10.6226 0.789305 5.67269 13.7035 3.43734 -3.45766 -93.5087 -2.53993 7.53383 30.8964 0.0632652 0.14496 3.29687 -0.448422 -16.0835 25.6348 0.0524902 0.120274 4.91077 1.23909 5.14185 -1.30426 -8.04702 7.96912 -5.67134 4.22388 -5.97183 -13.7035 3.43734 -3.45766 99.2321 13.5349 -10.237 -30.8964 0.0632652 0.14496 -3.50983 -0.51091 17.1516 -25.6348 0.0524901 0.120274 -2.18049 -36.1878 -4.77581 9.77065 -4.44866 2.1502 -1.24692 -31.0601 -19.1341 -0.901622 -41.0132 -0.693059 -16.4091 47.4104 6.35376 -2.46068 -42.7371 -6.39839 6.01699 -19.4429 17.0995 0.82413 -10.4558 13.2182 4.96962e-17 -7.95139e-16 1.2424e-17 -9.77065 -4.44866 2.1502 3.4793 -31.9313 22.3272 0.901622 -41.0132 -0.693059 16.833 48.1334 -6.65453 2.46068 -42.7371 -6.39839 -8.36712 -17.3223 -16.3373 -0.82413 -10.4558 13.2182 -5.96354e-16 -5.59082e-16 -1.27471e-14 
-0.0311622 87.3566 -15.1279 1.43416 7.14705 3.35596 0 5.37224 -1.21793 -1.36832 7.43355 0.00712448 0 5.94127 1.13336 -1.20857 5.88474 -0.0881579 -1.08535e-17 6.33601 0.121658 -0.810241 4.71233 0.180144 -1.16841e-17 6.88189 -0.46916 -0.497885 2.18913 0.307295 -2.08699e-17 8.0451 -1.59297 0.00651302 0.886062 0.418859 -2.67949e-17 10.0463 -0.967353 0.440268 0.595817 0.216148 -3.07187e-17 11.1612 1.66806 0.00652447 0.115982 0.01205 -1.36661e-17 5.06312 0.756688 0.510025 -3.17541 1.49294 -1.91632e-17 5.09976 0.446172 2.37728 -9.07467 0.713292 -2.12574e-17 5.10962 0.809285 -3.26877 -6.78891 -2.39583 1.30426 -8.04703 7.96922 10.1752 0.849351 5.31439 13.7035 3.43734 -3.45766 -92.8792 -3.13591 7.50346 30.8964 0.0632652 0.14496 3.40863 -0.480609 -16.6433 25.6348 0.0524902 0.120274 4.62824 -1.02732 3.74258 -1.30426 -8.04702 7.96912 -3.68788 4.33426 -5.90958 -13.7035 3.43734 -3.45766 98.18 11.2413 -9.44395 -30.8964 0.0632652 0.14496 -3.54376 -0.521243 17.3222 -25.6348 0.0524901 0.120274 -2.03103 -39.2272 -2.44785 9.77065 -4.44866 2.1502 -2.51079 -35.7697 -18.8362 -0.901622 -41.0132 -0.693059 -19.0131 51.5359 8.25926 -2.46068 -42.7371 -6.39839 6.02386 -22.4398 17.6384 0.82413 -10.4558 13.2182 -3.47873e-16 -8.07563e-16 2.48481e-17 -9.77065 -4.44866 2.1502 2.93154 -36.4159 22.9354 0.901622 -41.0132 -0.693059 19.4858 52.2089 -8.61871 2.46068 -42.7371 -6.39839 -9.69352 -20.7566 -16.9219 -0.82413 -10.4558 13.2182 -5.96354e-16 -5.59082e-16 -1.27471e-14 
-0.337979 85.4191 -14.6355 2.45662 13.6945 2.82435 0 5.37224 -1.21793 -1.86908 4.52199 0.119728 0 5.94127 1.13336 -1.63566 3.56866 -0.0605841 -1.08535e-17 6.33601 0.121658 -1.14319 3.03414 0.156038 -1.16841e-17 6.88189 -0.46916 -0.70236 1.55263 0.242022 -2.08699e-17 8.0451 -1.59297 -0.093507 1.0028 0.395776 -2.67949e-17 10.0463 -0.967353 0.475833 0.924604 0.23061 -3.07187e-17 11.1612 1.66806 0.00997921 0.108311 0.013832 -1.36661e-17 5.06312 0.756688 0.40441 -5.34026 1.03915 -1.91632e-17 5.09976 0.446172 2.23083 -7.60896 0.507157 -2.12574e-17 5.10962 0.809285 -2.78491 -4.44927 -1.7255 1.30426 -8.04703 7.96922 9.17327 0.884652 4.99923 13.7035 3.43734 -3.45766 -91.5958 -3.20599 8.02971 30.8964 0.0632652 0.14496 3.59354 -0.53648 -17.5728 25.6348 0.0524902 0.120274 3.30703 -3.82771 2.40544 -1.30426 -8.04702 7.96912 -0.880632 4.29147 -5.5224 -13.7035 3.43734 -3.45766 95.9361 8.19182 -8.86941 -30.8964 0.0632652 0.14496 -3.76896 -0.592647 18.4589 -25.6348 0.0524901 0.120274 -1.3946 -39.4676 -0.22873 9.77065 -4.44866 2.1502 -3.70753 -44.4867 -18.7314 -0.901622 -41.0132 -0.693059 -22.4255 55.947 10.9314 -2.46068 -42.7371 -6.39839 4.68378 -24.8381 18.1036 0.82413 -10.4558 13.2182 4.96962e-17 -7.95139e-16 1.2424e-17 -9.77065 -4.44866 2.1502 3.63925 -44.846 25.402 0.901622 -41.0132 -0.693059 22.8023 56.3755 -11.2363 2.46068 -42.7371 -6.39839 -10.2752 -23.7702 -17.5897 -0.82413 -10.4558 13.2182 -1.98785e-16 -5.8393e-16 -1.27595e-14 
